<svg xmlns="http://www.w3.org/2000/svg" fill="none" class="svg replaced-svg" viewBox="0 0 41 42"><path fill="#fff" d="M0 20.53C0 9.203 9.21.03 20.572.03 31.935.03 41 9.208 41 20.53c0 11.324-9.065 20.5-20.428 20.5C9.214 41.032 0 31.853 0 20.53Z"/><path fill="#D71920" d="M1.5 20.527c0-10.493 8.509-18.998 19.002-18.998 10.493 0 18.998 8.505 18.998 18.998s-8.505 18.998-18.998 19.002C10.01 39.53 1.504 31.02 1.5 20.527Zm1.243 0c0 4.904 1.989 9.34 5.204 12.555a17.715 17.715 0 0 0 12.555 5.204c4.905 0 9.34-1.989 12.556-5.204a17.697 17.697 0 0 0 5.203-12.555c0-4.904-1.989-9.34-5.203-12.556a17.697 17.697 0 0 0-12.556-5.203c-4.908 0-9.34 1.984-12.555 5.203a17.697 17.697 0 0 0-5.204 12.556Z"/><path fill="#004990" d="M22.58 25.186c0-.485.35-.782.756-.786.559 0 .83.432.83 1l.3.017.036-.873h-.018l.013-.013c-.345-.31-.733-.393-1.175-.393-.685 0-1.323.471-1.323 1.27.009 1.66 2.162.948 2.145 2.08 0 .52-.328.89-.835.89h-.021c-.638-.013-1.036-.537-1.053-1.222l-.336-.018v.018l.008.083.088 1.153c.388.222.816.28 1.231.28.795 0 1.59-.442 1.59-1.403-.013-1.59-2.258-1.127-2.236-2.083Zm-2.669-1.005c-.14 0-.27.027-.41.044l-.73.463.105.087c.197-.06.393-.096.581-.096 1.014 0 1.463.944 1.468 1.9 0 .991-.433 1.83-1.328 1.83-.585 0-.939-.406-.939-.991v-5.813l-.18-.08a4.646 4.646 0 0 1-1.222.359l-.009.166c.267.017.459.061.69.175l-.017 4.638v.625c0 .37-.005.742-.03 1.13l.165.092.337-.323c.28.166.628.297.947.302 1.586-.005 2.271-1.14 2.271-2.372 0-1.398-.624-2.136-1.699-2.136Zm-5.035-1.633.013-.227-2.123-.018-.017.227.83.223-.123.354-1.389 3.926c-.152-.454-1.288-3.882-1.367-4.175l.105-.166.69-.105.013-.249-2.293-.013v.018h-.017v.231l.629.144.113.21c-.078.293-1.266 3.673-1.428 4.123l-1.376-4.285.04-.013.668-.166.03-.249h-.1l-2.284-.022-.022.232.817.2 1.882 5.95.288.012 1.717-4.73 1.59 4.704.305.013 2.08-5.957.729-.192Zm-7.753.227.057.175-.057-.175Zm6.46-.035-.053-.013.053.013Zm13.998 4.944-.026.022c-.197.197-.503.502-.747.502-.468-.009-.647-.332-.651-.917V24.88h.03l1.24.018.018-.433-1.305-.017.017-1.114-.223-.017c-.179.624-.672.991-1.153 1.34l-.009.223h.018v.018h.62l-.017 2.672c0 .835.537 1.136 1.022 1.14h.056c.686-.035 1.153-.716 1.158-.716l-.044-.28-.004-.03Zm-2.289-7.621h.022c.52-.013.939-.21 1.337-.52l-.022.529H26.647s.012-.005.017-.005c.161-.017.995-.205 1.371-.275l.026-.004-.13-.201-.608-.061v-2.608c0-.755-.328-1.096-.856-1.096h-.074a.469.469 0 0 0-.227.044l-.957.572c-.096.06-.44.249-.454.415l-.03.476.065.052.498-.1c.061-.013.153-.009.153-.114v-.013c-.005-.083-.01-.162-.01-.236.005-.332.08-.58.682-.668.022-.004.044-.004.066-.004.301 0 .48.318.48.934v.63c-.41.126-.86.305-1.34.462-.363.118-.927.293-.927 1.013 0 .328.39.778.9.778Zm1.354-.009h-.004l.009-.127-.005.127Zm.03-2.03v.003a6.044 6.044 0 0 1-.222.07c.074-.026.144-.048.223-.074Zm0 .017v.28l-.017.934c-.258.161-.66.367-.895.367-.319 0-.646-.223-.646-.516-.005-.576.61-.742 1.559-1.065Zm-3.45-3.245c.201 0 .39-.162.393-.38 0-.223-.166-.424-.393-.428-.218 0-.375.218-.375.428 0 .2.183.38.375.38Zm-.284 4.891-.777.127-.013.21 2.232.017v-.018h.017v-.192l-.777-.161.013-3.743-.166-.079a4.96 4.96 0 0 1-1.214.34l-.018.21c.25.018.498.062.717.17l-.014 3.12Zm-6.166-.03-.747.126-.013.245 2.205.017.018-.244-.76-.162.013-2.092c0-.144.393-1.11.851-1.11.1 0 .245.075.332.14l.227.022.162-.572c-.148-.126-.489-.148-.668-.148-.454.004-.59.524-.769.869l-.113.183v-1l-.201-.079-.005.018-.008-.018a4.847 4.847 0 0 1-1.228.341l-.017.21c.258.017.51.061.73.17l-.01 3.084Zm-9.718.14-.782-.162.437-4.717.04-.118 2.1 5.07.118.01 2.044-5.028.057.105.401 4.69-.838.128-.013.244 2.406.018.018-.245-.73-.162-.524-5.206.821-.126-.004-.018h.017l-.008-.21-1.787-.017-1.786 4.341-1.812-4.332-1.822-.009-.026.227.891.166-.502 5.206-.69.127-.013.244 1.97.018.017-.245Zm27.506-2.595c.005-.852-.428-1.332-1.332-1.358h-.013c-.109 0-.284.043-.528.236l-.634.541c-.227-.428-.66-.764-1.166-.768-.332 0-.454.043-.716.249l-.603.393v-.573l-.196-.078a4.759 4.759 0 0 1-1.188.34l-.018.162c.245.017.49.061.7.17l-.005 3.123-.66.127-.013.223 2.04.017.017-.2-.685-.184.013-2.8c.301-.227.642-.502 1-.502.764 0 .782.773.786 1.459v1.86l-.66.149-.013.2 2.04.018.018-.2-.686-.184.013-2.809c.292-.214.686-.44 1.048-.44.69 0 .734.58.738 1.196v2.07l-.66.149-.012.2 2.009.018.017-.2-.655-.184.004-2.42Zm-20.108 2.935c.424 0 .721-.057.787-.096l.995-1.035-.28-.022c-.322.336-.637.62-1.095.62h-.066c-1.297-.078-1.476-1.057-1.48-2.175h.026l2.253.018c.25 0 .35-.03.35-.358 0-.73-.625-1.236-1.494-1.236-1.026 0-1.852.768-1.852 2.13.005 1.385.821 2.15 1.856 2.154Zm-.122-4.031c.625 0 .891.445.891 1.022v.1l-1.887-.017c.044-.546.41-1.105.996-1.105Zm7.853-.083c-.149-.127-.49-.149-.668-.149-.455.005-.59.524-.769.87l-.114.183v-1l-.2-.079-.005.018-.009-.018a4.851 4.851 0 0 1-1.227.34l-.013.21c.258.018.511.062.73.17l-.01 3.089-.746.126-.018.24h.075l2.131.018.017-.245-.76-.161.018-2.092c0-.144.393-1.11.847-1.11.1 0 .245.075.332.14l.227.022.162-.572Zm10.652 9.05-.122.196v-1.057l-.214-.079-.004.018-.01-.018a4.924 4.924 0 0 1-1.288.358l-.017.223c.27.018.537.061.764.18l-.009 3.244-.786.136-.013.253 2.315.017.017-.253-.794-.17.013-2.201c0-.149.41-1.167.895-1.167.105 0 .258.08.35.149l.235.022.17-.603c-.152-.13-.515-.153-.698-.153-.472-.008-.612.542-.804.904Zm-16.797 3.06h-.07c-1.371-.082-1.56-1.117-1.564-2.296l2.411.017c.262 0 .367-.035.367-.38 0-.768-.66-1.306-1.572-1.306-1.083.005-1.953.813-1.957 2.25.005 1.463.865 2.275 1.957 2.275.45 0 .76-.061.83-.1l1.052-1.092-.292-.027c-.346.363-.677.66-1.162.66Zm-.56-3.69c.66 0 .944.472.944 1.083v.105l-1.996-.017c.048-.585.433-1.17 1.053-1.17Zm15.72 3.005c-.341.358-.673.655-1.158.655h-.074c-1.372-.083-1.56-1.118-1.564-2.297l2.411.017c.262 0 .367-.034.367-.38 0-.768-.66-1.305-1.572-1.305-1.083.004-1.957.812-1.957 2.249 0 1.467.865 2.275 1.957 2.275.445 0 .76-.06.83-.1l1.052-1.092-.293-.022Zm-1.717-3.035c.66 0 .943.471.943 1.083 0 .035 0 .07-.004.105l-1.996-.018c.052-.58.441-1.17 1.057-1.17Zm5.695-6.709v.59h1.603v-.59H35.18Z"/></svg>